<?xml version="1.0" encoding="UTF-8"?>
<svg xmlns="http://www.w3.org/2000/svg" version="1.1" viewBox="0 0 1920 376">
  <defs>
    <style>
      .cls-1 {
        fill: #ffcf00;
      }

      .cls-2 {
        fill: #fff;
      }
    </style>
  </defs>
  <!-- Generator: Adobe Illustrator 28.6.0, SVG Export Plug-In . SVG Version: 1.2.0 Build 709)  -->
  <g>
    <g id="Capa_1">
      <g>
        <path class="cls-2" d="M145.7,357.2c-31.1,0-57.6-7-79.3-21-21.5-13.9-36.6-33.2-45.3-57.8s0-.9.4-1.1l44.2-25.9c.5-.3,1.1,0,1.3.5,13.1,35.7,39.8,53.5,80.1,53.5s34.7-3.9,44.9-11.6c10.2-7.7,15.3-18,15.3-31s-5.4-23-16.2-30.1c-10.8-7.1-29.9-14.8-57.3-23.1-28.1-8.3-50.7-18.2-68-29.6-21-14.8-31.4-36.5-31.4-65.2s10.2-51.3,30.5-68c20-17,44.6-25.4,73.5-25.4s48.2,6.2,67.8,18.7c19.4,12.3,34.3,29.6,44.7,51.7s0,1-.4,1.2l-43.2,25c-.5.3-1.1,0-1.3-.4-13.6-29.6-36.1-44.4-67.6-44.4s-27.8,3.6-37,10.9c-9.3,7.2-13.9,17-13.9,29.4s4.6,21.5,13.9,28.4c9.3,6.9,26.4,14.3,51.3,22,15.4,5.2,24.4,8.3,26.8,9.3,4,1.2,12,4.3,24.1,9.3,9.9,4,17.7,8.3,23.6,13,24.1,18.8,35.1,41,33.3,66.6,0,29.3-10.6,52.6-31.9,69.8-20.7,17-48.3,25.4-82.8,25.4Z"/>
        <path class="cls-2" d="M528.3,256.8h-182.1c-.6,0-1,.6-.9,1.1,3.8,16.7,12.1,29.8,25,39.1,13.1,9.6,29.4,14.3,48.8,14.3s45.6-9.3,59.2-28c.3-.4.8-.5,1.2-.3l39.6,23.1c.5.3.6.9.3,1.3-22.5,33.1-56.1,49.6-100.7,49.6s-67.7-11.4-91.1-34.2c-23.1-23.1-34.7-52.3-34.7-87.4s11.4-63.1,34.2-86.5c22.5-23.4,51.8-35.1,87.9-35.1s61.4,11.9,83.3,35.6c21.9,23.7,32.8,52.6,32.8,86.5s-.6,12.6-1.7,20c0,.5-.5.8-.9.8ZM345.7,216.1h133.7c.6,0,1-.5.9-1.1-3.5-17.7-11.1-31.3-22.7-41-11.9-9.9-26.3-14.8-43.2-14.8s-33.9,5.1-46.3,15.3c-12.1,10-19.9,23.5-23.4,40.5-.1.6.3,1.1.9,1.1Z"/>
        <path class="cls-2" d="M1169.4,151.8v-31c0-.5.4-.9.9-.9h48.1c.5,0,.9.4.9.9v229.4c0,.5-.4.9-.9.9h-48.1c-.5,0-.9-.4-.9-.9v-32.4c-18.8,26.2-45.8,39.3-80.9,39.3s-58.9-11.7-81.4-35.1c-22.5-23.4-33.8-52.3-33.8-86.5s11.3-63.1,33.8-86.5c22.5-23.4,49.6-35.1,81.4-35.1s61.6,12.7,80.4,38.1c.2.2.6.1.6-.2ZM1044.1,288.8c13.9,13.9,31.3,20.8,52.3,20.8s38.4-6.9,52.3-20.8c13.9-14.2,20.8-31.9,20.8-53.2s-6.9-38.9-20.8-52.7c-13.9-14.2-31.3-21.3-52.3-21.3s-38.4,7.1-52.3,21.3c-13.9,13.9-20.8,31.5-20.8,52.7s6.9,38.7,20.8,53.2Z"/>
        <path class="cls-2" d="M1797.2,113.9c26.8,0,48.3,8.6,64.5,25.7,16.2,17.1,24.3,40.3,24.3,69.6v141.1c0,.5-.4.9-.9.9h-48.1c-.5,0-.9-.4-.9-.9v-136c0-17.3-4.6-30.5-13.9-39.8-9.3-9.3-21.9-13.9-37.9-13.9s-32.5,5.6-43,16.9c-10.5,11.3-15.7,27.8-15.7,49.7v123c0,.5-.4.9-.9.9h-48.1c-.5,0-.9-.4-.9-.9V120.9c0-.5.4-.9.9-.9h48.1c.5,0,.9.4.9.9v27.6c0,.3.4.4.6.2,15.4-23.2,39.1-34.8,71.1-34.8Z"/>
        <path class="cls-1" d="M775.8,148.5V24c0-.5-.4-.9-.9-.9h-48.1c-.5,0-.9.4-.9.9v74.2c0,.2,0,.5.3.7l49.7,49.7"/>
        <path class="cls-1" d="M725.8,198.5v151.8c0,.5.4.9.9.9h48.1c.5,0,.9-.4.9-.9v-123c0-21.9,5.2-38.5,15.7-49.7,10.5-11.3,24.8-16.9,43-16.9s28.7,4.6,37.9,13.9c9.3,9.3,13.9,22.5,13.9,39.8v136c0,.5.4.9.9.9h48.1c.5,0,.9-.4.9-.9v-141.1c0-29.3-8.1-52.5-24.3-69.6-16.2-17.1-37.7-25.7-64.5-25.7s-49.1,11.9-71.7,34.6c-10.6,10.6-46.2,45.9-49.7,49.3s-.3.4-.3.7Z"/>
        <path class="cls-2" d="M728.8,148.1l-35.5-35.5c-.4-.4-1.1-.1-1.1.4v8.8c0,.3-.3.6-.6.6-33.9.2-57.2,12.9-69.9,40.5-.1.3-.6.2-.6-.1v-42c0-.5-.4-.9-.9-.9h-48.1c-.5,0-.9.4-.9.9v229.4c0,.5.4.9.9.9h48.1c.5,0,.9-.4.9-.9v-110.2c0-23.7,8.1-39.4,21.3-50.9,13.9-12,30.7-16.2,49.2-15.2.3,0,.6.3.6.6v9.3c0,.6.7.8,1.1.4l35.5-35.5c.2-.2.2-.6,0-.9Z"/>
        <path class="cls-2" d="M1635.3,236c0-33.9-10.9-62.7-32.8-86.5-21.9-23.7-49.6-35.6-83.3-35.6s-170.1.4-178.3.4-.3-.1-.3-.3v-4.3c0-33.3,17.9-43.1,53.6-40.3.5,0,1-.4,1-.9V22.3c0-.5-.4-.9-.9-.9-33.5-2-59.1,5.1-76.8,21.3-17.9,16.3-26.8,35-26.8,67v4.3c0,.2-.1.3-.3.3h-33.9c-.5,0-.9.4-.9.9v46.2c0,.5.4.9.9.9h33.3c.5,0,.9.4.9.9v186.9c0,.5.4.9.9.9h48.1c.5,0,.9-.4.9-.9v-186.9c0-.5.4-.9.9-.9h78.4c-15.2,20.8-22.9,45.1-22.9,73.1s11.6,64.3,34.7,87.4c23.4,22.8,53.8,34.2,91.1,34.2s78.2-16.5,100.7-49.6c.3-.4.2-1.1-.3-1.3l-39.6-23.1c-.4-.2-.9-.1-1.2.3-13.6,18.7-33.3,28-59.2,28s-35.7-4.8-48.8-14.3c-13-9.5-21.4-22.8-25.1-39.9,0-.2.1-.4.3-.4h182.9c.5,0,.8-.3.9-.8,1.1-7.4,1.7-14.1,1.7-20ZM1449.3,216.1c-.2,0-.3-.2-.3-.4,3.4-17.4,11.3-31.2,23.5-41.3,12.3-10.2,27.8-15.3,46.3-15.3s31.4,4.9,43.2,14.8c11.8,9.8,19.4,23.7,22.8,41.7,0,.2-.1.4-.3.4h-135.2Z"/>
      </g>
    </g>
  </g>
</svg>